<svg width="21" height="20" viewBox="0 0 21 20" fill="none" xmlns="http://www.w3.org/2000/svg">
<path fill-rule="evenodd" clip-rule="evenodd" d="M5.55453 12.8801V14.9456L0.603027 9.99256L1.63953 8.96356L5.55453 12.8801ZM7.62003 14.9456H5.55453L10.506 19.8971L11.541 18.8651L7.62003 14.9456ZM19.365 11.0306L20.397 10.0001L10.503 0.101562L9.47103 1.13356L13.38 5.05006H11.016L8.28603 2.32306L7.25403 3.35506L8.95353 5.05456H7.77003V12.7346H15.45V11.5451L17.1495 13.2446L18.183 12.2126L15.45 9.48106V7.11706L19.365 11.0306ZM6.07053 4.53406L5.03853 5.56606L6.14703 6.67456L7.17903 5.63956L6.07053 4.53406ZM14.8605 13.3211L13.83 14.3531L14.9385 15.4616L15.9705 14.4266L14.8605 13.3211ZM3.85503 6.74956L2.82003 7.78306L5.55303 10.5131V8.44906L3.85653 6.74956H3.85503ZM12.051 14.9456H9.98553L12.717 17.6771L13.7505 16.6436L12.051 14.9456Z" fill="white"/>
</svg>
