<svg width="16" height="16" viewBox="0 0 16 16" fill="none" xmlns="http://www.w3.org/2000/svg">
<path d="M3.85826 16H0.747768V5.31786H3.85826V16ZM2.30134 3.86071C1.30692 3.86071 0.5 2.98214 0.5 1.92143C0.5 1.41183 0.689783 0.923111 1.0276 0.562773C1.36542 0.202436 1.82359 0 2.30134 0C2.77908 0 3.23726 0.202436 3.57508 0.562773C3.9129 0.923111 4.10268 1.41183 4.10268 1.92143C4.10268 2.98214 3.29576 3.86071 2.30134 3.86071ZM15.4967 16H12.3929V10.8C12.3929 9.56071 12.3694 7.97143 10.7757 7.97143C9.15848 7.97143 8.91071 9.31786 8.91071 10.7107V16H5.80357V5.31786H8.78683V6.775H8.83036C9.24554 5.93571 10.26 5.05 11.7734 5.05C14.9208 5.05 15.5 7.26072 15.5 10.1321V16H15.4967Z" fill="#05010D"/>
</svg>
